# xmcd CD database file
#
# Track frame offsets:
#	150
#	14266
#	31556
#	48815
#	62468
#
# Disc length: 1066 seconds
#
# Revision: 0
# Processed by: cddbd v1.5.1PL2 Copyright (c) Steve Scherf et al.
# Submitted via: CDex 1.51
#
DISCID=2a042805
DTITLE=Various Artist - Women of Country Bonus CD
DYEAR=2006
DGENRE=Country
TTITLE0=Wake Up Older - Julie Roberts
TTITLE1=I Won't Say Goodbye - Katrina Elam
TTITLE2=It's Okay To Cry - Amanda Wilkinson
TTITLE3=Sometimes - Holly Williams
TTITLE4=Strong Tonight - Erika Jo
EXTD=YEAR: 2006
EXTT0=
EXTT1=
EXTT2=
EXTT3=
EXTT4=
PLAYORDER=
